PathFileType	4	(X/Y/Z)	C:\Users\Basilio\Documents\Thesis Gigler\squatting_fais\c3dfiles\047\SLS_pre_front2\markers_experimental.trc
DataRate	CameraRate	NumFrames	NumMarkers	Units	OrigDataRate	OrigDataStartFrame	OrigNumFrames
200.000000	200.000000	4	60	mm	200.000000	943	1258
Frame#	Time	FHD			LBHD			RBHD			C7			T10			CLAV			LSHO			LUUPA			LMUPA			LDUPA			LLEP			LMEP			LRAD			LUL			LRFIN			RSHO			RUPA1			RMUPA			RDUPA			RLEP			RMEP			RRAD			RUL			RUFIN			LASI			RASI			USACR			LSACR			RSACR			LTHI1			LTHI2			LTHI3			LTHI4			LLFC			LMFC			LTIB1			LTIB2			LTIB3			LTIB4			LLMAL			LMMAL			LMT1			LMT2			LMT5			RTHI			RTHI2			RTHI3			RTHI4			RLFC			RMFC			RTIB1			RTIB2			RTIB3			RTIB4			RLMAL			RMMAL			RHEE			RMT1			RMT2			RMT5			
		X1	Y1	Z1	X2	Y2	Z2	X3	Y3	Z3	X4	Y4	Z4	X5	Y5	Z5	X6	Y6	Z6	X7	Y7	Z7	X8	Y8	Z8	X9	Y9	Z9	X10	Y10	Z10	X11	Y11	Z11	X12	Y12	Z12	X13	Y13	Z13	X14	Y14	Z14	X15	Y15	Z15	X16	Y16	Z16	X17	Y17	Z17	X18	Y18	Z18	X19	Y19	Z19	X20	Y20	Z20	X21	Y21	Z21	X22	Y22	Z22	X23	Y23	Z23	X24	Y24	Z24	X25	Y25	Z25	X26	Y26	Z26	X27	Y27	Z27	X28	Y28	Z28	X29	Y29	Z29	X30	Y30	Z30	X31	Y31	Z31	X32	Y32	Z32	X33	Y33	Z33	X34	Y34	Z34	X35	Y35	Z35	X36	Y36	Z36	X37	Y37	Z37	X38	Y38	Z38	X39	Y39	Z39	X40	Y40	Z40	X41	Y41	Z41	X42	Y42	Z42	X43	Y43	Z43	X44	Y44	Z44	X45	Y45	Z45	X46	Y46	Z46	X47	Y47	Z47	X48	Y48	Z48	X49	Y49	Z49	X50	Y50	Z50	X51	Y51	Z51	X52	Y52	Z52	X53	Y53	Z53	X54	Y54	Z54	X55	Y55	Z55	X56	Y56	Z56	X57	Y57	Z57	X58	Y58	Z58	X59	Y59	Z59	X60	Y60	Z60	

944	4.715	-189.1449279785157	1744.601684570313	-1074.423095703125	-364.6039733886719	1698.807373046875	-1100.810913085938	-342.1906433105469	1702.224731445313	-953.5358886718752	-376.8906860351563	1522.955078125	-1024.57958984375	-408.5948791503907	1220.618530273438	-1002.518249511719	-223.1542510986329	1476.009765625	-1058.4345703125	-317.8414001464844	1515.72412109375	-1191.357421875	-243.0913543701172	1470.38916015625	-1335.161010742188	-222.2395629882813	1515.006103515625	-1328.144409179688	-184.7733612060547	1490.092895507813	-1367.233154296875	-131.3442687988282	1521.576538085938	-1392.223022460938	-86.47967529296876	1466.745849609375	-1352.569213867188	129.2575836181641	1588.033447265625	-1417.878540039063	99.5556335449219	1603.281005859375	-1487.846923828125	192.8364562988282	1638.231201171875	-1451.015380859375	-257.7384033203126	1529.320434570313	-909.830993652344	-116.5096588134766	1486.133178710938	-808.7302246093752	-96.18119049072268	1524.2841796875	-833.221130371094	-47.92464447021485	1492.970947265625	-813.9628906250002	16.54339981079102	1514.9609375	-827.2481079101565	31.14893913269044	1452.039184570313	-877.7176513671877	268.7011718750001	1550.790405273438	-911.1284790039065	269.0190734863282	1563.875244140625	-841.097595214844	347.8389587402344	1583.010986328125	-905.7719726562502	-267.9918212890626	977.8196411132815	-1095.040283203125	-245.9707489013672	1015.762939453125	-873.2292480468752	-435.7664184570314	1081.117553710938	-988.0197753906252	-443.6052246093751	1047.774780273438	-1011.872924804688	-439.6479492187501	1054.315551757813	-954.1394042968752	-340.4288635253907	817.2921142578127	-1156.385009765625	-292.3324584960938	747.7952880859376	-1160.103881835938	-244.3296203613282	759.5278320312501	-1152.79638671875	-310.1299743652344	689.6964721679689	-1151.527709960938	-295.8213195800782	521.7617797851564	-1112.823852539063	-254.6932373046876	518.1356201171876	-995.4276123046877	-264.5586242675782	339.6967468261719	-1011.723266601563	-277.6010742187501	290.6779479980469	-1085.507080078125	-259.6893615722657	288.7993469238282	-1040.278076171875	-277.6626281738282	214.9829101562501	-1008.164916992188	-332.6108703613282	118.549186706543	-1049.09228515625	-311.7596740722657	135.7047424316407	-962.381530761719	-191.8128051757813	62.6072235107422	-978.193786621094	-192.6739807128907	58.53613281250001	-1021.817626953125	-238.1266021728516	45.32286453247071	-1067.316284179688	-244.7637481689454	864.0061035156252	-766.6394042968751	-179.2486419677735	851.200866699219	-771.825134277344	-158.9866333007813	872.3156738281252	-785.8999633789065	-143.1227416992188	775.5593872070315	-773.1051025390627	-38.74433517456055	674.5239868164064	-794.609558105469	-28.62665939331055	670.9395141601564	-918.7014160156252	53.61510086059572	580.2288208007814	-817.9092407226565	43.32432556152344	483.2288208007814	-766.8159790039064	78.96639251708986	500.6630249023439	-792.3098144531252	103.4627456665039	460.1054992675782	-825.3497314453127	119.9936294555664	302.6357116699219	-781.8659667968752	124.1911544799805	315.4345092773438	-872.5015869140627	71.36966705322267	246.5007781982422	-821.604675292969	271.2641906738282	290.0842285156251	-877.3467407226565	278.8807983398438	301.9896850585938	-834.1389770507815	250.9230651855469	270.2688598632813	-768.9604492187502	
945	4.72	-190.5414428710938	1745.177368164063	-1072.808349609375	-365.4927062988282	1699.578857421875	-1100.61376953125	-342.9479980468751	1702.882080078125	-953.279724121094	-377.6117553710938	1523.6376953125	-1024.448120117188	-409.2752990722657	1220.660888671875	-1002.798889160156	-223.6538085937501	1476.9951171875	-1058.29345703125	-318.6854858398438	1516.593505859375	-1191.005737304688	-243.5423278808594	1471.417114257813	-1335.059448242188	-222.6395874023438	1515.964599609375	-1327.969604492188	-185.2048950195313	1491.22705078125	-1367.095825195313	-131.709701538086	1522.734497070313	-1391.987182617188	-86.82162475585939	1467.67578125	-1352.466796875	129.0043029785157	1589.265991210938	-1417.533325195313	99.07254791259768	1604.554077148438	-1487.620483398438	192.6643218994141	1639.257934570313	-1450.927856445313	-258.5100402832032	1530.015991210938	-909.6175537109377	-117.5261840820313	1487.171875	-808.9010009765627	-96.60406494140628	1524.907592773438	-832.925231933594	-48.76834106445314	1493.800048828125	-813.3879394531252	16.07113647460938	1516.060791015625	-826.9336547851565	30.55113792419434	1453.223266601563	-877.6947021484377	267.8958435058594	1551.82275390625	-910.456481933594	268.0955200195313	1565.336669921875	-840.3350219726565	347.4212036132813	1584.128784179688	-905.129821777344	-265.2443847656251	979.3176269531252	-1096.92822265625	-245.4583282470704	1016.487976074219	-873.4707641601565	-435.1672973632814	1081.637939453125	-988.400329589844	-443.0887451171876	1048.081665039063	-1012.140319824219	-439.1573181152345	1054.751831054688	-954.4113769531252	-340.2115478515626	817.856628417969	-1156.491821289063	-292.4668273925782	748.1058959960939	-1160.040893554688	-244.5138244628907	759.6575927734376	-1152.7490234375	-310.7307128906251	690.2011718750001	-1151.2890625	-297.2266235351563	522.0697631835939	-1112.424560546875	-256.3881225585938	518.3783569335939	-995.0285644531252	-265.5147094726563	340.1294555664063	-1011.671508789063	-278.7230834960938	291.0475769042969	-1085.2119140625	-260.9032897949219	289.7642211914063	-1040.140014648438	-278.4893798828126	215.1972656250001	-1007.403442382813	-332.5771789550782	118.5257949829102	-1049.10986328125	-311.8374023437501	135.6541748046875	-962.3757324218752	-191.5438079833985	62.6295509338379	-978.3663330078127	-192.808578491211	58.46886825561525	-1021.73046875	-238.1833801269532	45.23841094970704	-1067.342895507813	-244.0869750976563	864.749694824219	-766.8787841796876	-178.421630859375	851.8414306640627	-772.097839355469	-158.4163818359375	872.7522583007815	-786.3712158203127	-142.5647888183594	775.9874267578127	-773.315368652344	-38.29003143310548	675.1596069335939	-794.5462036132815	-27.33096885681153	671.8352661132814	-919.1438598632815	54.20438385009767	581.0126342773439	-817.5288085937502	43.75637435913087	483.6205139160157	-766.6320800781251	79.67966461181642	501.3501586914064	-792.2615356445315	104.0958328247071	460.5795288085939	-825.192810058594	120.5343017578125	303.1049194335938	-782.0019531250002	124.0850906372071	315.7858276367188	-872.399353027344	71.6745071411133	247.2722625732422	-821.3860473632815	271.6035156250001	290.5732116699219	-877.2195434570315	279.2038269042969	302.6163024902344	-834.1768188476565	251.4501647949219	270.6540832519532	-769.0479736328127	
946	4.725000000000001	-190.4620666503907	1746.02587890625	-1074.158935546875	-366.0964355468751	1700.228393554688	-1100.46923828125	-343.8568420410157	1703.377685546875	-952.6223144531252	-378.2077026367188	1524.093994140625	-1024.293823242188	-409.0834045410157	1221.142211914063	-1002.989685058594	-224.2818756103516	1477.806640625	-1058.182495117188	-320.7746887207032	1517.190063476563	-1190.241088867188	-243.8589019775391	1472.31689453125	-1334.9736328125	-222.8874664306641	1516.370727539063	-1327.644165039063	-185.7124938964844	1492.203369140625	-1366.929565429688	-132.2954406738282	1523.665893554688	-1391.898193359375	-87.13267517089845	1468.865600585938	-1352.341430664063	128.511703491211	1590.332275390625	-1417.445678710938	98.72296905517581	1605.7607421875	-1487.423217773438	191.9259338378907	1640.719848632813	-1450.698120117188	-259.4249572753907	1530.641357421875	-909.1929321289065	-117.994743347168	1487.795654296875	-808.3833007812502	-97.54073333740237	1525.690063476563	-832.5626220703127	-49.44933700561525	1494.521362304688	-812.9680175781252	15.41888046264649	1516.815063476563	-826.5234985351565	29.80029296875001	1454.046875	-876.9129638671877	269.5017395019532	1554.161865234375	-911.9893798828127	267.4930419921876	1566.35546875	-840.0375976562502	347.0598754882813	1585.292602539063	-904.7966308593752	-264.6893310546876	979.9707031250002	-1097.060180664063	-244.8251037597657	1017.215209960938	-873.8317871093752	-434.5519409179689	1082.031860351563	-988.669616699219	-442.3963012695314	1048.277587890625	-1012.525451660156	-438.667205810547	1055.206909179688	-954.6436767578127	-340.0221862792969	818.278991699219	-1156.559448242188	-292.5504760742188	748.4819335937501	-1160.042602539063	-244.6426696777344	759.8134155273439	-1152.779541015625	-311.3008422851563	690.6208496093751	-1151.07763671875	-298.5495910644532	522.2763671875001	-1112.19775390625	-258.0909118652344	518.6307373046876	-994.6164550781252	-266.4167785644532	340.2428588867188	-1011.528869628906	-279.7340698242188	291.2817077636719	-1084.879638671875	-261.6889648437501	289.8026428222657	-1039.917236328125	-279.0740661621094	215.4479370117188	-1007.172607421875	-332.6183776855469	118.5181503295899	-1049.026977539063	-311.9170532226563	135.7034912109375	-962.3198852539065	-191.4859008789063	62.62306213378908	-978.362487792969	-192.6548614501954	58.44482040405275	-1021.822814941406	-238.1233825683594	45.2574577331543	-1067.334594726563	-243.5756378173829	865.3192138671877	-766.8673706054689	-177.9327850341797	852.6652832031252	-772.1419067382815	-157.6726989746094	873.4597167968752	-786.5672607421877	-142.1132507324219	776.695251464844	-773.2251586914065	-37.58465957641602	675.8117065429689	-794.737731933594	-26.70073318481446	672.2497558593751	-918.8773193359377	54.99793624877931	581.8179931640626	-817.7784423828127	44.65448379516602	484.3326721191407	-766.7536010742189	80.09140014648439	502.0640563964845	-792.1295166015627	104.7234039306641	461.3439025878907	-824.9998168945315	120.9145126342774	303.5703430175782	-781.5484008789065	124.5314407348633	316.2767028808594	-872.3046875000002	71.90377044677736	247.7559051513672	-821.2239990234377	272.1934814453126	291.0112915039063	-876.995788574219	279.6509094238282	303.1787719726563	-834.0157470703127	251.7083282470704	271.0456542968751	-768.7359619140627	
947	4.73	-191.6956329345703	1746.384765625	-1073.203979492188	-366.6106262207032	1700.908569335938	-1100.281982421875	-344.6865234375001	1703.975708007813	-952.4338989257815	-378.5447998046876	1524.198364257813	-1024.243896484375	-409.0907287597657	1221.555908203125	-1003.144165039063	-224.9695587158204	1478.658447265625	-1057.9677734375	-320.5108032226563	1517.884399414063	-1190.636596679688	-244.3705596923829	1473.2314453125	-1334.864501953125	-223.2358398437501	1517.216918945313	-1327.621459960938	-186.1311187744141	1493.000610351563	-1366.818115234375	-132.7389831542969	1524.509521484375	-1391.679077148438	-87.53083801269533	1469.79150390625	-1352.220458984375	128.0346984863282	1591.7265625	-1417.127075195313	98.32360839843753	1606.947509765625	-1487.136840820313	191.5265502929688	1641.76708984375	-1450.479248046875	-259.8789978027344	1531.22119140625	-909.0667114257815	-118.7657546997071	1488.533935546875	-808.0767822265627	-98.12697601318362	1526.567504882813	-832.2822875976565	-49.98150634765626	1495.388061523438	-813.0781860351565	14.65548038482666	1517.74609375	-826.184509277344	29.33627891540528	1454.752563476563	-876.4897460937502	267.0611267089844	1554.117431640625	-909.8077392578127	266.7331542968751	1567.266967773438	-839.3316650390627	346.4233703613282	1586.553466796875	-904.2930908203127	-264.1515197753907	980.5483398437502	-1097.259155273438	-244.1387939453126	1017.928039550781	-874.137878417969	-434.029998779297	1082.243896484375	-989.0125122070315	-439.0372619628907	1048.16650390625	-1013.164001464844	-438.0992431640626	1055.767578125	-954.9072265625002	-339.7895812988282	818.9356689453127	-1156.63330078125	-292.7545166015626	748.8065185546876	-1160.0830078125	-244.7426147460938	760.0062255859376	-1152.796752929688	-311.7908020019532	691.0714721679689	-1150.969360351563	-300.2794189453126	522.7544555664064	-1111.821533203125	-259.8362731933594	518.9747924804689	-994.3777465820315	-267.8351135253907	340.4833984375001	-1011.088623046875	-280.7774658203126	291.4260253906251	-1084.77783203125	-262.1351013183594	290.0317077636719	-1040.072143554688	-279.3355407714844	215.8158111572266	-1007.612121582031	-332.7286376953126	118.5617828369141	-1049.000366210938	-312.0087585449219	135.590805053711	-962.2669677734377	-191.3986053466797	62.70455932617189	-978.399353027344	-192.6531982421876	58.440975189209	-1021.822875976563	-238.1473999023438	45.21732330322266	-1067.319702148438	-242.9818878173829	865.9775390625002	-767.1454467773439	-177.2956085205078	853.3452758789065	-772.1777954101565	-157.1106109619141	874.1560668945315	-786.3992309570315	-141.4722900390625	777.5333251953127	-773.0667114257815	-36.86422348022462	676.3917846679689	-794.662536621094	-25.65603828430176	672.7772827148439	-919.2139892578127	55.54406356811525	582.2299804687501	-817.5950927734377	45.22321701049805	484.9119873046876	-766.7642822265626	80.59362030029298	502.6850891113282	-791.8483886718752	105.1961898803711	461.5856323242189	-824.3421630859377	121.4033203125	304.3175659179688	-781.2416992187502	125.1038513183594	316.9556274414063	-872.2067871093752	72.22482299804689	248.4598236083985	-821.1396484375002	272.6917724609376	291.4723205566407	-876.8466796875002	280.0586853027344	303.4494018554688	-833.521667480469	252.4421386718751	272.0167846679688	-768.862731933594	
